<svg width="30" height="30" viewBox="0 0 30 30" fill="none" xmlns="http://www.w3.org/2000/svg">
<path d="M15 0C6.68182 0 0 6.68182 0 15C0 23.3182 6.68182 30 15 30C23.3182 30 30 23.3182 30 15C30 6.68182 23.3182 0 15 0ZM23.6591 10.2955L12.75 21.6136C12.6136 21.75 12.4773 21.8182 12.2727 21.8182C12.0682 21.8182 11.8636 21.75 11.7955 21.6136L6.47727 15.8864L6.34091 15.75C6.20455 15.6136 6.13636 15.4091 6.13636 15.2727C6.13636 15.1364 6.20455 14.9318 6.34091 14.7955L7.29545 13.8409C7.56818 13.5682 7.97727 13.5682 8.25 13.8409L8.31818 13.9091L12.0682 17.9318C12.2045 18.0682 12.4091 18.0682 12.5455 17.9318L21.75 8.45455C22.0227 8.18182 22.4318 8.18182 22.7045 8.45455L23.6591 9.40909C23.9318 9.61364 23.9318 10.0227 23.6591 10.2955Z" fill="white"/>
</svg>
