<svg width="30" height="30" viewBox="0 0 30 30" fill="none" xmlns="http://www.w3.org/2000/svg">
<path d="M25.6118 4.38839C19.7608 -1.46251 10.24 -1.46309 4.38845 4.38839C-1.46311 10.2399 -1.46253 19.7599 4.38845 25.6114C10.2394 31.4629 19.7602 31.4629 25.6118 25.6114C31.4627 19.7599 31.4627 10.2393 25.6118 4.38839ZM20.918 20.9177C20.4673 21.3685 19.7365 21.3685 19.2857 20.9177L15.0001 16.6322L10.5107 21.1215C10.0599 21.5723 9.32921 21.5723 8.87842 21.1215C8.42764 20.6707 8.42764 19.94 8.87842 19.4892L13.3678 14.9999L9.08217 10.7143C8.63138 10.2635 8.63138 9.53224 9.08217 9.08204C9.53296 8.63126 10.2637 8.63126 10.7145 9.08204L15.0001 13.3676L19.0814 9.28636C19.5322 8.83558 20.2629 8.83558 20.7137 9.28636C21.1645 9.73714 21.1645 10.4679 20.7137 10.9186L16.6324 14.9999L20.918 19.2855C21.3688 19.7362 21.3688 20.467 20.918 20.9177Z" fill="white"/>
</svg>
