<svg width="44" height="44" viewBox="0 0 44 44" fill="none" xmlns="http://www.w3.org/2000/svg">
<path d="M22.0001 6.99281C13.7256 6.99287 6.99303 13.7247 6.99297 22C6.99291 30.2753 13.725 37.0065 21.9999 37.0069C30.2748 37.0072 37.007 30.275 37.007 21.9997C37.0067 13.7248 30.2746 6.99275 22.0001 6.99281ZM30.3692 21.9998C30.3692 22.6373 29.8525 23.154 29.215 23.154L23.1542 23.154L23.1542 29.503C23.1541 30.1405 22.6374 30.6572 21.9999 30.6572C21.3624 30.6572 20.8457 30.1405 20.8458 29.503L20.8458 23.1541L14.785 23.1541C14.1475 23.1541 13.6304 22.637 13.6308 21.9999C13.6308 21.3624 14.1475 20.8457 14.785 20.8457L20.8458 20.8457L20.8459 15.0738C20.8459 14.4363 21.3626 13.9196 22.0001 13.9196C22.6376 13.9196 23.1543 14.4363 23.1543 15.0738L23.1542 20.8456L29.215 20.8456C29.8525 20.8456 30.3692 21.3623 30.3692 21.9998Z" fill="white"/>
</svg>
