<svg width="30" height="30" viewBox="0 0 30 30" fill="none" xmlns="http://www.w3.org/2000/svg">
<path d="M15 0C6.72923 0 0 6.72865 0 15C0 23.2713 6.72923 30 15 30C23.2708 30 30 23.2713 30 15C30 6.72865 23.2708 0 15 0ZM22.2115 16.1538H16.1538V22.5C16.1538 23.1369 15.6369 23.6538 15 23.6538C14.3631 23.6538 13.8462 23.1369 13.8462 22.5V16.1538H7.78846C7.15154 16.1538 6.63462 15.6369 6.63462 15C6.63462 14.3631 7.15154 13.8462 7.78846 13.8462H13.8462V8.07692C13.8462 7.44 14.3631 6.92308 15 6.92308C15.6369 6.92308 16.1538 7.44 16.1538 8.07692V13.8462H22.2115C22.8485 13.8462 23.3654 14.3631 23.3654 15C23.3654 15.6369 22.8485 16.1538 22.2115 16.1538Z" fill="white"/>
</svg>
