<svg width="30" height="30" viewBox="0 0 30 30" fill="none" xmlns="http://www.w3.org/2000/svg">
<rect width="30" height="30" fill="none"/>
<path d="M28.6214 2.63437C28.392 2.5418 28.1281 2.59299 27.953 2.76354L25.4034 5.23875C22.6676 2.50519 19.0127 1 15.111 1C14.2857 1 13.4533 1.06995 12.6374 1.20746C7.08407 2.14444 2.5845 6.1805 1.17478 11.4902C1.12726 11.6685 1.16773 11.8578 1.28362 12.0033C1.39982 12.1489 1.57856 12.234 1.76834 12.234H5.67374C5.93097 12.234 6.16122 12.078 6.24952 11.8432C7.39281 8.80929 10.2328 6.49422 13.4845 5.94566C14.0201 5.85547 14.5653 5.80993 15.1058 5.80993C17.6898 5.80993 20.103 6.81418 21.9024 8.63755L19.3132 11.1509C19.1381 11.3211 19.0857 11.5771 19.1801 11.7994C19.2755 12.0221 19.4987 12.167 19.7467 12.167H28.3868C28.7253 12.167 29 11.9003 29 11.5717V3.18411C29 2.94362 28.8501 2.72663 28.6214 2.63437Z" stroke="#fff" fill="none"/>
<path d="M28.2311 17.7657H24.326C24.0687 17.7657 23.8385 17.9214 23.7502 18.1562C22.6069 21.1901 19.7669 23.5055 16.5152 24.0538C15.9793 24.1439 15.4344 24.1895 14.8939 24.1895C12.3099 24.1895 9.89644 23.1852 8.09734 21.3619L10.6862 18.8485C10.8616 18.6783 10.914 18.4223 10.8193 18.2C10.7242 17.9773 10.5007 17.8324 10.2527 17.8324H1.61319C1.27471 17.8324 1 18.0991 1 18.4277V26.8156C1 27.0564 1.14931 27.2734 1.37864 27.3656C1.60736 27.4579 1.87134 27.4067 2.04671 27.2362L4.59635 24.7613C7.33178 27.4945 10.9867 29 14.8884 29C15.7141 29 16.5465 28.9301 17.3623 28.7926C22.9153 27.8562 27.4152 23.8195 28.8249 18.5098C28.8725 18.3312 28.832 18.1425 28.7164 17.9964C28.5999 17.8511 28.4208 17.7657 28.2311 17.7657Z" stroke="#fff" fill="none"/>
</svg>
