<svg width="30" height="30" viewBox="0 0 30 30" fill="none" xmlns="http://www.w3.org/2000/svg">
<rect width="30" height="30" fill="none"/>
<path stroke="#fff" fill="none" d="M27.5585 11.8889H24.939C24.5179 11.8889 24.171 11.6571 24.0098 11.2682C23.8485 10.8793 23.9304 10.4697 24.2276 10.1721L26.0797 8.32044C26.2139 8.18686 26.3204 8.02798 26.3928 7.853C26.4653 7.67802 26.5023 7.49042 26.5018 7.30104C26.5018 6.91578 26.3519 6.55385 26.0797 6.28111L23.7189 3.9203C23.1744 3.37585 22.225 3.37481 21.6796 3.9203L19.8279 5.77193C19.7371 5.86612 19.6282 5.94102 19.5077 5.99216C19.3873 6.0433 19.2577 6.06962 19.1269 6.06956C18.8676 6.06956 18.6099 5.96793 18.4196 5.79007C18.3199 5.69703 18.2409 5.58403 18.1877 5.45842C18.1346 5.33281 18.1085 5.19741 18.1111 5.06104V2.44148C18.1107 2.0593 17.9587 1.6929 17.6885 1.42265C17.4182 1.15241 17.0518 1.00041 16.6696 1L13.3304 1C12.9482 1.00041 12.5818 1.15241 12.3115 1.42265C12.0413 1.6929 11.8893 2.0593 11.8889 2.44148V5.06104C11.8889 5.69259 11.3719 6.06956 10.8721 6.06956C10.6885 6.06956 10.4179 6.0177 10.1716 5.77193L8.31993 3.9203C7.77444 3.37481 6.82504 3.37585 6.28059 3.9203L3.91978 6.28111C3.7855 6.41478 3.67906 6.57374 3.60661 6.74881C3.53416 6.92388 3.49715 7.11157 3.4977 7.30104C3.4977 7.68578 3.64756 8.0477 3.91978 8.32044L5.77193 10.1721C6.06904 10.4697 6.15044 10.8793 5.9897 11.2682C5.82896 11.6571 5.48207 11.8889 5.06104 11.8889H2.44148C2.0593 11.8893 1.6929 12.0413 1.42265 12.3115C1.15241 12.5818 1.00041 12.9482 1 13.3304L1 16.6686C1.00027 17.0509 1.1522 17.4175 1.42244 17.6879C1.69268 17.9584 2.05917 18.1106 2.44148 18.1111H5.06104C5.48207 18.1111 5.82896 18.3429 5.99022 18.7318C6.15148 19.1207 6.06956 19.5303 5.77244 19.8279L3.9203 21.6796C3.78606 21.8131 3.67964 21.972 3.60719 22.147C3.53474 22.322 3.49771 22.5096 3.49822 22.699C3.49822 23.0842 3.64807 23.4461 3.9203 23.7189L6.28111 26.0797C6.82607 26.6247 7.77496 26.6257 8.32044 26.0797L10.1721 24.2281C10.2629 24.1339 10.3718 24.059 10.4923 24.0078C10.6127 23.9567 10.7423 23.9304 10.8731 23.9304C11.3724 23.9304 11.8894 24.3079 11.8894 24.939V27.558C11.8895 27.9402 12.0414 28.3068 12.3115 28.5771C12.5817 28.8475 12.9482 28.9996 13.3304 29H16.6691C17.0513 28.9995 17.4177 28.8473 17.688 28.577C17.9582 28.3067 18.1102 27.9402 18.1106 27.558V24.939C18.1106 24.3074 18.6276 23.9304 19.1269 23.9304C19.3104 23.9304 19.5816 23.9823 19.8279 24.2281L21.6796 26.0797C22.225 26.6252 23.1744 26.6241 23.7189 26.0797L26.0797 23.7189C26.214 23.5852 26.3204 23.4263 26.3929 23.2512C26.4653 23.0761 26.5023 22.8884 26.5018 22.699C26.5018 22.3142 26.3519 21.9523 26.0797 21.6796L24.2276 19.8279C23.9304 19.5303 23.849 19.1207 24.0098 18.7318C24.1705 18.3429 24.5179 18.1111 24.939 18.1111H27.5585C27.9407 18.1106 28.3071 17.9584 28.5774 17.6881C28.8476 17.4178 28.9996 17.0513 29 16.6691V13.3304C28.9996 12.9482 28.8476 12.5818 28.5773 12.3115C28.3071 12.0413 27.9407 11.8893 27.5585 11.8889ZM18.6296 15C18.6296 17.001 17.001 18.6296 15 18.6296C12.999 18.6296 11.3704 17.001 11.3704 15C11.3704 12.999 12.999 11.3704 15 11.3704C17.001 11.3704 18.6296 12.999 18.6296 15Z" />
</svg>
